<svg xmlns="http://www.w3.org/2000/svg" width="96" height="96" viewBox="0 0 96 96" fill="none">
  <path d="M56 20c6.6-7.8 15.5-8.2 20-7.4-1.1 4.8-4.4 13.1-12.6 17.5-4 2.1-7.8 2.3-10.3 2.1.2-3 1.1-7.3 2.9-12.2Z" fill="#2b2b2b" fill-opacity=".9"/>
  <path d="M49.5 22.2c-2.6-6.7-8.6-11.3-16-12.2.3 4.5 2.1 11.6 7.8 16.8 3.3 3 6.9 4.4 10 4.8.6-2.9.3-6.2-1.8-9.4Z" fill="#2b2b2b" fill-opacity=".88"/>
  <path d="M44.2 30.4c-12.8 0-24 9.3-25.7 22.4-1.7 13.1 6.7 25.6 19.4 29.3 3.5 1 6.7 1.2 10.2-.3 3.2-1.4 6.3-1.4 9.5 0 3.5 1.5 6.8 1.3 10.2.3 12.7-3.7 21.1-16.2 19.4-29.3C85.5 39.7 74.3 30.4 61.5 30.4c-3.8 0-6.9 1.1-9.5 2.8-2.6-1.7-5.7-2.8-7.8-2.8Z" fill="#0f0f0f" fill-opacity=".92"/>
  <!-- bite 1 -->
  <path d="M83 46c-8.2 1.4-12.6 6.2-12.2 13.2.4 7.1 6 10.6 14.2 9.2-1.6-3.5-1.6-7.8 0-12.2 1.6-4.5 0-8.6-2-10.2Z" fill="#f4f0e8"/>
  <!-- bite 2 -->
  <path d="M75 67c-7.2 1.2-11.3 5.5-10.9 11.7.3 6.3 5.2 9.3 12.4 8.1-1.2-3.1-1.1-6.7.2-10.6 1.2-3.8 0-7.4-1.7-9.2Z" fill="#f4f0e8"/>
</svg>
