<svg xmlns="http://www.w3.org/2000/svg" width="180" height="140" viewBox="0 0 180 140" fill="none">
  <path d="M12 88c18-22 44-44 80-50 34-6 70 3 76 22 6 18-20 38-54 40-36 2-62-10-78-18-18-10-30-14-30-4 0 15 24 34 62 40 38 7 74-5 92-24" stroke="#121212" stroke-opacity=".65" stroke-width="4" stroke-linecap="round" stroke-linejoin="round"/>
  <path d="M16 44c20-16 50-26 82-24 32 3 56 18 52 34-4 16-34 22-64 18-30-4-50-14-60-22-10-8-16-10-16-2 0 14 18 30 48 38 30 8 66 2 92-14" stroke="#121212" stroke-opacity=".28" stroke-width="4" stroke-linecap="round" stroke-linejoin="round"/>
</svg>
