<svg xmlns="http://www.w3.org/2000/svg" width="96" height="96" viewBox="0 0 96 96" fill="none">
  <defs>
    <linearGradient id="g" x1="10" y1="8" x2="88" y2="92" gradientUnits="userSpaceOnUse">
      <stop stop-color="#B7FF5A"/>
      <stop offset="0.45" stop-color="#7C6CFF"/>
      <stop offset="1" stop-color="#FF4BD8"/>
    </linearGradient>
    <filter id="s" x="-40%" y="-40%" width="180%" height="180%">
      <feDropShadow dx="0" dy="8" stdDeviation="10" flood-color="#000" flood-opacity="0.5"/>
    </filter>
  </defs>
  <g filter="url(#s)">
    <path d="M48 7C64.8 7 79 21.2 79 38c0 10.7-5.6 19.8-14.5 25.2 6.8 3.2 12 9.2 13.7 16.6.5 2.1-1 4.2-3.2 4.2H21c-2.2 0-3.7-2.1-3.2-4.2 1.7-7.4 6.9-13.4 13.7-16.6C22.6 57.8 17 48.7 17 38 17 21.2 31.2 7 48 7Z" fill="url(#g)" fill-opacity="0.95"/>
    <path d="M31.5 35.5c2.3-9.8 8.8-15.8 18.3-16.7 9.6-.9 16.9 3.1 20.3 11.3 1.4 3.3 1.7 6.8 1.2 10.4-.8 5.5-3.9 9.3-8.5 12.1-4.3 2.7-9.1 3.8-14.1 3.4-5.1-.4-9.5-2.3-13-5.9-4.5-4.5-6-10-4.2-14.6Z" fill="#0b0c10" fill-opacity="0.14"/>
    <path d="M34 82.3c3.9-6.3 9.3-9.4 14.1-10.8 6.8-2 13.9-.4 19.9 4.2 2.3 1.7 4.2 3.9 5.6 6.6H34Z" fill="#0b0c10" fill-opacity="0.12"/>
  </g>
</svg>
